P3 4 3 255 0 0 0 0 0 0 0 0 0 255 0 255 0 0 0 0 255 127 0 0 0 0 0 0 0 0 0 0 0 0 0 255 127 0 0 0 
