P3 4 3 255 128 128 128 128 128 128 128 128 128 128 128 128 128 128 128 255 255 255 128 128 128 128 128 128 128 128 128 128 128 128 128 128 128 128 128 128
